<svg xmlns="http://www.w3.org/2000/svg" xmlns:xlink="http://www.w3.org/1999/xlink" contentStyleType="text/css" height="739.5833px" preserveAspectRatio="none" style="width:475px;height:739px;background:#A0DBB0;" version="1.1" viewBox="0 0 475 739" width="475px" zoomAndPan="magnify"><defs><filter height="300%" id="f2pfv7nsezh3x" width="300%" x="-1" y="-1"><feGaussianBlur result="blurOut" stdDeviation="2.0833333333333335"/><feColorMatrix in="blurOut" result="blurOut2" type="matrix" values="0 0 0 0 0 0 0 0 0 0 0 0 0 0 0 0 0 0 .4 0"/><feOffset dx="4.166666666666667" dy="4.166666666666667" in="blurOut2" result="blurOut3"/><feBlend in="SourceGraphic" in2="blurOut3" mode="normal"/></filter></defs><g><rect fill="#A0DBB0" height="739.5833" style="stroke:none;stroke-width:1.0416666666666667;" width="475" x="0" y="0"/><!--cluster edg.android.rciva--><g id="cluster_edg.android.rciva"><path d="M20.8333,16.6667 L20.8333,17.2505 L31.0573,15.5158 L41.2814,17.2036 L51.5054,17.7769 L61.7294,14.685 L71.9534,16.4508 L82.1774,15.482 L92.4014,15.6014 L102.6255,16.4773 L112.8495,14.7462 L123.0735,18.2046 L133.2975,14.9159 L143.5215,16.1173 L153.7455,16.6667 L157.9122,20.8333 L158.2984,20.9374 L159.2938,26.2228 L160.8899,31.6701 L162.2586,37.0561 L163.9051,42.517 L165.2039,47.8841 L165.2039,48.5484 L175.6728,49.511 L186.1417,49.7482 L196.6106,49.7709 L207.0795,48.5914 L217.5484,49.1719 L228.0173,49.8348 L238.4862,45.8808 L248.9551,49.7689 L259.424,47.0605 L269.893,49.3669 L280.3619,46.5091 L290.8308,47.6938 L301.2997,49.9441 L311.7686,47.7487 L322.2375,48.1766 L332.7064,48.8247 L343.1753,49.0403 L353.6442,47.8733 L364.1131,48.6819 L374.5821,46.2941 L385.051,48.6741 L395.5199,49.4069 L405.9888,49.1189 L416.4577,49.587 L426.9266,46.5422 L437.3955,46.0725 L447.8644,46.158 L458.3333,47.8841 L462.5,52.0508 L462.3364,52.0508 L461.9541,62.5331 L464.3928,73.0153 L462.0148,83.4976 L461.5471,93.9799 L463.1341,104.4622 L460.6477,114.9445 L461.058,125.4267 L464.3026,135.909 L463.7102,146.3913 L464.5403,156.8736 L461.6061,167.3559 L463.3867,177.8381 L464.1401,188.3204 L461.1878,198.8027 L462.2337,209.285 L462.85,219.7673 L464.3104,230.2495 L462.4884,240.7318 L463.7849,251.2141 L460.9617,261.6964 L460.6187,272.1786 L463.8989,282.6609 L460.5085,293.1432 L463.9138,303.6255 L463.074,314.1078 L461.7558,324.59 L461.5173,335.0723 L463.7743,345.5546 L461.6685,356.0369 L464.1441,366.5192 L460.9646,377.0014 L464.2151,387.4837 L463.8453,397.966 L463.1805,408.4483 L462.6312,418.9306 L464.5184,429.4128 L464.2044,439.8951 L462.9702,450.3774 L463.245,460.8597 L462.1382,471.342 L464.4901,481.8242 L462.9302,492.3065 L462.9794,502.7888 L460.8101,513.2711 L461.3744,523.7534 L463.9743,534.2356 L463.6938,544.7179 L462.3807,555.2002 L461.6051,565.6825 L461.8919,576.1648 L460.594,586.647 L463.652,597.1293 L464.5543,607.6116 L463.9622,618.0939 L464.4304,628.5762 L462.1202,639.0584 L462.7423,649.5407 L461.4233,660.023 L463.289,670.5053 L463.1855,680.9875 L464.0344,691.4698 L461.8621,701.9521 L462.1267,712.4344 L462.5,722.9167 L458.3333,727.0833 L458.3333,728.3152 L447.9167,728.6593 L437.5,725.6596 L427.0833,726.5448 L416.6667,727.498 L406.25,725.3865 L395.8333,728.065 L385.4167,727.8 L375,726.8034 L364.5833,727.4785 L354.1667,729.1074 L343.75,726.2142 L333.3333,727.9583 L322.9167,727.8768 L312.5,727.4049 L302.0833,727.4748 L291.6667,727.3985 L281.25,725.3496 L270.8333,725.97 L260.4167,725.8013 L250,727.2606 L239.5833,727.3281 L229.1667,727.5326 L218.75,726.2751 L208.3333,726.8958 L197.9167,726.7494 L187.5,728.6857 L177.0833,728.2682 L166.6667,725.7346 L156.25,726.8808 L145.8333,725.4799 L135.4167,727.8844 L125,728.7736 L114.5833,728.596 L104.1667,725.8735 L93.75,728.3721 L83.3333,725.02 L72.9167,727.6393 L62.5,726.2519 L52.0833,727.352 L41.6667,727.7509 L31.25,728.3947 L20.8333,727.0833 L16.6667,722.9167 L14.6669,722.9167 L17.9874,712.4378 L17.1616,701.959 L17.6537,691.4801 L18.7439,681.0012 L16.6819,670.5224 L17.1535,660.0435 L17.2596,649.5647 L17.2145,639.0858 L16.6644,628.607 L18.6408,618.1281 L14.9729,607.6493 L18.2369,597.1704 L14.9333,586.6915 L15.1658,576.2127 L16.7778,565.7338 L16.7452,555.255 L15.2977,544.7761 L17.8159,534.2973 L16.969,523.8184 L18.6852,513.3396 L18.5197,502.8607 L15.4215,492.3818 L15.5613,481.903 L16.3078,471.4241 L17.6542,460.9453 L17.7861,450.4664 L17.5032,439.9876 L15.7168,429.5087 L18.4343,419.0299 L18.4272,408.551 L16.5353,398.0721 L16.0026,387.5933 L15.5517,377.1144 L16.0706,366.6356 L17.0484,356.1567 L16.4767,345.6779 L15.5061,335.199 L18.0205,324.7201 L15.3918,314.2413 L18.0622,303.7624 L17.8534,293.2836 L17.6996,282.8047 L18.5903,272.3259 L15.9837,261.847 L15.8316,251.3682 L18.108,240.8893 L15.0086,230.4104 L16.0167,219.9316 L16.9875,209.4527 L16.8575,198.9739 L15.671,188.495 L16.5473,178.0162 L18.735,167.5373 L18.468,157.0585 L15.0103,146.5796 L16.8848,136.1007 L15.2392,125.6219 L16.5936,115.143 L17.4805,104.6642 L17.833,94.1853 L14.8202,83.7065 L17.7793,73.2276 L16.69,62.7488 L15.124,52.2699 L15.3582,41.791 L17.5739,31.3122 L16.6667,20.8333 L20.8333,16.6667 " fill="none" filter="url(#f2pfv7nsezh3x)" style="stroke:#333333;stroke-width:2.0833333333333335;"/><path d="M16.6667,47.8841 L16.6667,48.176 L27.2765,47.3087 L37.8863,48.1526 L48.4961,48.4392 L59.1059,46.8933 L69.7157,47.7762 L80.3255,47.2918 L90.9353,47.3515 L101.5451,47.7895 L112.1549,46.9239 L122.7647,48.6531 L133.3745,47.0087 L143.9843,47.6094 L154.5941,48.484 L165.2039,47.8841 " fill="none" style="stroke:#333333;stroke-width:2.0833333333333335;"/><text fill="#333333" font-family="Segoe Print" font-size="12.5" font-weight="bold" lengthAdjust="spacing" textLength="124.5789" x="26.0417" y="35.5611">edg.android.rciva</text></g><!--entity Card--><g id="elem_Card"><polygon fill="none" filter="url(#f2pfv7nsezh3x)" points="250,535.4167,250,535.6356,260.4588,534.9851,270.9176,535.618,281.3764,535.833,291.8352,534.6735,302.294,535.3357,312.7529,534.9724,323.2117,535.4167,323.1607,535.2936,323.7919,535.6389,324.2983,535.683,325.053,536.3265,325.4849,536.1908,326.1579,536.6371,326.0945,536.6108,326.5406,537.2837,326.6186,537.8042,326.9121,538.4139,327.124,538.9898,327.3783,539.5833,327.5643,539.5833,327.6274,549.1602,327.9884,558.737,328.0774,568.3138,328.0859,577.8906,327.3783,587.4674,327.46,587.5013,327.283,588.1183,327.1155,588.7393,326.4148,589.1394,326.6197,589.9146,326.1579,590.4137,326.1185,590.3186,325.6396,590.829,324.9137,590.7431,324.3811,591.124,323.8995,591.6279,323.2117,591.6341,323.2117,591.5833,312.7529,591.7438,302.294,591.9869,291.8352,592.0677,281.3764,591.63,270.9176,591.9333,260.4588,591.0378,250,591.6341,250.0378,591.7253,249.4836,591.5659,248.8806,591.2886,248.3137,591.0985,247.5788,590.5028,247.0537,590.4137,246.8445,590.3271,246.6103,589.7419,246.5467,589.2274,246.2584,588.6198,246.296,588.1472,245.8333,587.4674,245.6514,587.4674,245.476,577.8906,246.0711,568.3138,245.1387,558.737,245.2926,549.1602,245.8333,539.5833,246.0415,539.6696,246.2172,539.052,246.5571,538.5024,246.4623,537.7728,246.912,537.2687,247.0537,536.6371,247.1322,536.8265,247.5802,536.2414,248.2195,536.1181,248.8382,535.9452,249.4973,535.8698,250,535.4167" style="stroke:#333333;stroke-width:1.0416666666666667;"/><polygon fill="none" points="306.545,540.625,306.545,540.698,309.67,540.4811,312.795,540.6921,315.92,540.7638,319.045,540.3773,322.17,540.625,322.143,540.625,322.0219,542.7083,322.0368,544.7917,322.1463,546.875,321.9299,548.9583,322.17,551.0417,322.17,551.2339,319.045,550.8228,315.92,550.973,312.795,551.1916,309.67,551.0119,306.545,551.0417,306.5687,551.0417,306.5339,548.9583,306.607,546.875,306.628,544.7917,306.7484,542.7083,306.545,540.625" style="stroke:#333333;stroke-width:1.0416666666666667;"/><polygon fill="none" points="304.4617,542.7083,304.4617,542.7813,305.295,542.5645,306.1283,542.7754,306.9617,542.8471,307.795,542.4606,308.6283,542.7083,308.6014,542.7083,308.4802,543.125,308.4952,543.5417,308.6047,543.9583,308.3883,544.375,308.6283,544.7917,308.6283,544.9839,307.795,544.5728,306.9617,544.723,306.1283,544.9416,305.295,544.7619,304.4617,544.7917,304.4854,544.7917,304.4506,544.375,304.5237,543.9583,304.5447,543.5417,304.665,543.125,304.4617,542.7083" style="stroke:#333333;stroke-width:1.0416666666666667;"/><polygon fill="none" points="304.4617,546.875,304.4617,546.948,305.295,546.7311,306.1283,546.9421,306.9617,547.0138,307.795,546.6273,308.6283,546.875,308.6014,546.875,308.4802,547.2917,308.4952,547.7083,308.6047,548.125,308.3883,548.5417,308.6283,548.9583,308.6283,549.1506,307.795,548.7395,306.9617,548.8897,306.1283,549.1083,305.295,548.9285,304.4617,548.9583,304.4854,548.9583,304.4506,548.5417,304.5237,548.125,304.5447,547.7083,304.665,547.2917,304.4617,546.875" style="stroke:#333333;stroke-width:1.0416666666666667;"/><text fill="#2E2E2E" font-family="Segoe Print" font-size="12.5" lengthAdjust="spacing" textLength="29.4617" x="266.6667" y="573.0611">Card</text></g><!--entity Card Item--><g id="elem_Card Item"><polygon fill="none" filter="url(#f2pfv7nsezh3x)" points="233.8542,654.1667,233.8542,654.3856,244.4181,653.7351,254.9821,654.368,265.5461,654.583,276.11,653.4235,286.674,654.0857,297.238,653.7224,307.8019,653.7672,318.3659,654.0957,328.9299,653.4465,339.4938,654.1667,339.5674,654.3443,339.9993,654.2086,340.646,654.5914,341.319,655.0375,341.8394,655.1155,342.4401,655.3871,342.462,655.3961,342.6739,655.9721,342.9855,656.5893,343.249,657.1866,343.6043,657.8219,343.6605,658.3333,344.3595,658.3333,344.368,667.9102,343.9257,677.487,344.1434,687.0638,344.392,696.6406,343.6605,706.2174,343.4291,706.1216,343.6341,706.8969,343.0772,707.3566,343.0995,708.0561,342.5254,708.5087,342.4401,709.1637,342.431,709.1418,341.9494,709.6457,341.2551,709.6362,340.6863,709.9297,340.1281,710.2487,339.4938,710.3841,339.4938,710.8177,328.9299,710.38,318.3659,710.6833,307.8019,709.7878,297.238,710.6804,286.674,710.9552,276.11,710.8472,265.5461,711.0227,254.9821,709.8809,244.4181,709.7048,233.8542,710.3841,233.7716,710.1848,233.2571,710.1211,232.6495,709.8329,232.1769,709.8705,231.4739,709.3518,230.9079,709.1637,230.7978,709.1181,230.737,708.6048,230.2058,707.8966,230.0091,707.327,230.1398,706.8929,229.6875,706.2174,230.1413,706.2174,230.4526,696.6406,229.3523,687.0638,230.02,677.487,230.3025,667.9102,229.6875,658.3333,229.536,658.2706,229.9008,657.7313,230.2161,657.1716,230.6288,656.6522,230.6625,655.9758,230.9079,655.3871,230.9694,655.5354,231.4236,654.9653,231.9964,654.6816,232.7426,654.8164,233.1696,654.1808,233.8542,654.1667" style="stroke:#333333;stroke-width:1.0416666666666667;"/><polygon fill="none" points="322.8271,659.375,322.8271,659.448,325.9521,659.2311,329.0771,659.4421,332.2021,659.5138,335.3271,659.1273,338.4521,659.375,338.4252,659.375,338.3041,661.4583,338.319,663.5417,338.4285,665.625,338.2121,667.7083,338.4521,669.7917,338.4521,669.9839,335.3271,669.5728,332.2021,669.723,329.0771,669.9416,325.9521,669.7619,322.8271,669.7917,322.8508,669.7917,322.8161,667.7083,322.8891,665.625,322.9102,663.5417,323.0305,661.4583,322.8271,659.375" style="stroke:#333333;stroke-width:1.0416666666666667;"/><polygon fill="none" points="320.7438,661.4583,320.7438,661.5313,321.5771,661.3145,322.4105,661.5254,323.2438,661.5971,324.0771,661.2106,324.9105,661.4583,324.8835,661.4583,324.7624,661.875,324.7773,662.2917,324.8868,662.7083,324.6704,663.125,324.9105,663.5417,324.9105,663.7339,324.0771,663.3228,323.2438,663.473,322.4105,663.6916,321.5771,663.5119,320.7438,663.5417,320.7675,663.5417,320.7327,663.125,320.8058,662.7083,320.8268,662.2917,320.9472,661.875,320.7438,661.4583" style="stroke:#333333;stroke-width:1.0416666666666667;"/><polygon fill="none" points="320.7438,665.625,320.7438,665.698,321.5771,665.4811,322.4105,665.6921,323.2438,665.7638,324.0771,665.3773,324.9105,665.625,324.8835,665.625,324.7624,666.0417,324.7773,666.4583,324.8868,666.875,324.6704,667.2917,324.9105,667.7083,324.9105,667.9006,324.0771,667.4895,323.2438,667.6397,322.4105,667.8583,321.5771,667.6785,320.7438,667.7083,320.7675,667.7083,320.7327,667.2917,320.8058,666.875,320.8268,666.4583,320.9472,666.0417,320.7438,665.625" style="stroke:#333333;stroke-width:1.0416666666666667;"/><text fill="#2E2E2E" font-family="Segoe Print" font-size="12.5" lengthAdjust="spacing" textLength="61.8896" x="250.5208" y="691.8111">Card Item</text></g><!--entity Calculator--><g id="elem_Calculator"><polygon fill="none" filter="url(#f2pfv7nsezh3x)" points="144.2708,60.4167,144.2708,60.6356,154.9935,59.9851,165.7161,60.618,176.4388,60.833,187.1615,59.6735,197.8841,60.3357,208.6068,59.9724,219.3294,60.0172,230.0521,60.3457,240.7747,59.6965,251.4974,60.4167,251.571,60.5943,252.0029,60.4586,252.6496,60.8414,253.3226,61.2875,253.843,61.3655,254.4437,61.6371,254.4656,61.6461,254.6775,62.2221,254.9891,62.8393,255.2526,63.4366,255.6079,64.0719,255.6641,64.5833,256.3631,64.5833,256.3716,74.1602,255.9293,83.737,256.147,93.3138,256.3956,102.8906,255.6641,112.4674,255.4327,112.3716,255.6376,113.1469,255.0808,113.6066,255.1031,114.3061,254.529,114.7587,254.4437,115.4137,254.4346,115.3918,253.953,115.8957,253.2587,115.8862,252.6899,116.1797,252.1316,116.4987,251.4974,116.6341,251.4974,117.0677,240.7747,116.63,230.0521,116.9333,219.3294,116.0378,208.6068,116.9304,197.8841,117.2052,187.1615,117.0972,176.4388,117.2727,165.7161,116.1309,154.9935,115.9548,144.2708,116.6341,144.1883,116.4348,143.6738,116.3711,143.0662,116.0829,142.5936,116.1205,141.8906,115.6018,141.3246,115.4137,141.2145,115.3681,141.1537,114.8548,140.6225,114.1466,140.4258,113.577,140.5564,113.1429,140.1042,112.4674,140.558,112.4674,140.8693,102.8906,139.769,93.3138,140.4367,83.737,140.7192,74.1602,140.1042,64.5833,139.9526,64.5206,140.3175,63.9813,140.6327,63.4216,141.0455,62.9022,141.0791,62.2258,141.3246,61.6371,141.386,61.7854,141.8402,61.2153,142.4131,60.9316,143.1592,61.0664,143.5863,60.4308,144.2708,60.4167" style="stroke:#333333;stroke-width:1.0416666666666667;"/><polygon fill="none" points="234.8307,65.625,234.8307,65.698,237.9557,65.4811,241.0807,65.6921,244.2057,65.7638,247.3307,65.3773,250.4557,65.625,250.4287,65.625,250.3076,67.7083,250.3226,69.7917,250.4321,71.875,250.2157,73.9583,250.4557,76.0417,250.4557,76.2339,247.3307,75.8228,244.2057,75.973,241.0807,76.1916,237.9557,76.0119,234.8307,76.0417,234.8544,76.0417,234.8196,73.9583,234.8927,71.875,234.9138,69.7917,235.0341,67.7083,234.8307,65.625" style="stroke:#333333;stroke-width:1.0416666666666667;"/><polygon fill="none" points="232.7474,67.7083,232.7474,67.7813,233.5807,67.5645,234.4141,67.7754,235.2474,67.8471,236.0807,67.4606,236.9141,67.7083,236.8871,67.7083,236.766,68.125,236.7809,68.5417,236.8904,68.9583,236.674,69.375,236.9141,69.7917,236.9141,69.9839,236.0807,69.5728,235.2474,69.723,234.4141,69.9416,233.5807,69.7619,232.7474,69.7917,232.7711,69.7917,232.7363,69.375,232.8094,68.9583,232.8304,68.5417,232.9508,68.125,232.7474,67.7083" style="stroke:#333333;stroke-width:1.0416666666666667;"/><polygon fill="none" points="232.7474,71.875,232.7474,71.948,233.5807,71.7311,234.4141,71.9421,235.2474,72.0138,236.0807,71.6273,236.9141,71.875,236.8871,71.875,236.766,72.2917,236.7809,72.7083,236.8904,73.125,236.674,73.5417,236.9141,73.9583,236.9141,74.1506,236.0807,73.7395,235.2474,73.8897,234.4141,74.1083,233.5807,73.9285,232.7474,73.9583,232.7711,73.9583,232.7363,73.5417,232.8094,73.125,232.8304,72.7083,232.9508,72.2917,232.7474,71.875" style="stroke:#333333;stroke-width:1.0416666666666667;"/><text fill="#2E2E2E" font-family="Segoe Print" font-size="12.5" lengthAdjust="spacing" textLength="63.4766" x="160.9375" y="98.0611">Calculator</text></g><!--entity Title--><g id="elem_Title"><polygon fill="none" filter="url(#f2pfv7nsezh3x)" points="44.7917,179.1667,44.7917,179.3856,54.9235,178.7351,65.0553,179.368,75.1872,179.583,85.319,178.4235,95.4508,179.0857,105.5827,178.7224,115.7145,179.1667,115.6636,179.0436,116.2947,179.3889,116.8012,179.433,117.5559,180.0765,117.9878,179.9408,118.6608,180.3871,118.5974,180.3608,119.0434,181.0337,119.1214,181.5542,119.4149,182.1639,119.6269,182.7398,119.8812,183.3333,120.0671,183.3333,120.1303,192.9102,120.4913,202.487,120.5802,212.0638,120.5887,221.6406,119.8812,231.2174,119.9629,231.2513,119.7858,231.8683,119.6183,232.4893,118.9176,232.8894,119.1225,233.6646,118.6608,234.1637,118.6214,234.0686,118.1425,234.579,117.4165,234.4931,116.8839,234.874,116.4023,235.3779,115.7145,235.3841,115.7145,235.3333,105.5827,235.4938,95.4508,235.7369,85.319,235.8177,75.1872,235.38,65.0553,235.6833,54.9235,234.7878,44.7917,235.3841,44.8295,235.4753,44.2753,235.3159,43.6722,235.0386,43.1054,234.8485,42.3705,234.2528,41.8454,234.1637,41.6362,234.0771,41.402,233.4919,41.3383,232.9774,41.0501,232.3698,41.0877,231.8972,40.625,231.2174,40.443,231.2174,40.2677,221.6406,40.8628,212.0638,39.9304,202.487,40.0842,192.9102,40.625,183.3333,40.8332,183.4196,41.0088,182.802,41.3488,182.2524,41.254,181.5228,41.7037,181.0187,41.8454,180.3871,41.9238,180.5765,42.3719,179.9914,43.0112,179.8681,43.6299,179.6952,44.289,179.6198,44.7917,179.1667" style="stroke:#333333;stroke-width:1.0416666666666667;"/><polygon fill="none" points="99.0479,184.375,99.0479,184.448,102.1729,184.2311,105.2979,184.4421,108.4229,184.5138,111.5479,184.1273,114.6729,184.375,114.6459,184.375,114.5248,186.4583,114.5397,188.5417,114.6492,190.625,114.4328,192.7083,114.6729,194.7917,114.6729,194.9839,111.5479,194.5728,108.4229,194.723,105.2979,194.9416,102.1729,194.7619,99.0479,194.7917,99.0715,194.7917,99.0368,192.7083,99.1098,190.625,99.1309,188.5417,99.2512,186.4583,99.0479,184.375" style="stroke:#333333;stroke-width:1.0416666666666667;"/><polygon fill="none" points="96.9645,186.4583,96.9645,186.5313,97.7979,186.3145,98.6312,186.5254,99.4645,186.5971,100.2979,186.2106,101.1312,186.4583,101.1042,186.4583,100.9831,186.875,100.998,187.2917,101.1075,187.7083,100.8911,188.125,101.1312,188.5417,101.1312,188.7339,100.2979,188.3228,99.4645,188.473,98.6312,188.6916,97.7979,188.5119,96.9645,188.5417,96.9882,188.5417,96.9534,188.125,97.0265,187.7083,97.0476,187.2917,97.1679,186.875,96.9645,186.4583" style="stroke:#333333;stroke-width:1.0416666666666667;"/><polygon fill="none" points="96.9645,190.625,96.9645,190.698,97.7979,190.4811,98.6312,190.6921,99.4645,190.7638,100.2979,190.3773,101.1312,190.625,101.1042,190.625,100.9831,191.0417,100.998,191.4583,101.1075,191.875,100.8911,192.2917,101.1312,192.7083,101.1312,192.9006,100.2979,192.4895,99.4645,192.6397,98.6312,192.8583,97.7979,192.6785,96.9645,192.7083,96.9882,192.7083,96.9534,192.2917,97.0265,191.875,97.0476,191.4583,97.1679,191.0417,96.9645,190.625" style="stroke:#333333;stroke-width:1.0416666666666667;"/><text fill="#2E2E2E" font-family="Segoe Print" font-size="12.5" lengthAdjust="spacing" textLength="27.1729" x="61.4583" y="216.8111">Title</text></g><!--entity Logo--><g id="elem_Logo"><polygon fill="none" filter="url(#f2pfv7nsezh3x)" points="160.9375,179.1667,160.9375,179.3856,171.5009,178.7351,182.0644,179.368,192.6278,179.583,203.1913,178.4235,213.7547,179.0857,224.3182,178.7224,234.8816,179.1667,234.8306,179.0436,235.4618,179.3889,235.9682,179.433,236.7229,180.0765,237.1549,179.9408,237.8279,180.3871,237.7644,180.3608,238.2105,181.0337,238.2885,181.5542,238.582,182.1639,238.7939,182.7398,239.0483,183.3333,239.2342,183.3333,239.2974,192.9102,239.6584,202.487,239.7473,212.0638,239.7558,221.6406,239.0483,231.2174,239.1299,231.2513,238.9529,231.8683,238.7854,232.4893,238.0847,232.8894,238.2896,233.6646,237.8279,234.1637,237.7885,234.0686,237.3095,234.579,236.5836,234.4931,236.051,234.874,235.5694,235.3779,234.8816,235.3841,234.8816,235.3333,224.3182,235.4938,213.7547,235.7369,203.1913,235.8177,192.6278,235.38,182.0644,235.6833,171.5009,234.7878,160.9375,235.3841,160.9753,235.4753,160.4211,235.3159,159.8181,235.0386,159.2512,234.8485,158.5163,234.2528,157.9912,234.1637,157.782,234.0771,157.5478,233.4919,157.4842,232.9774,157.1959,232.3698,157.2335,231.8972,156.7708,231.2174,156.5889,231.2174,156.4135,221.6406,157.0086,212.0638,156.0762,202.487,156.2301,192.9102,156.7708,183.3333,156.979,183.4196,157.1547,182.802,157.4946,182.2524,157.3998,181.5228,157.8495,181.0187,157.9912,180.3871,158.0697,180.5765,158.5177,179.9914,159.157,179.8681,159.7757,179.6952,160.4348,179.6198,160.9375,179.1667" style="stroke:#333333;stroke-width:1.0416666666666667;"/><polygon fill="none" points="218.2149,184.375,218.2149,184.448,221.3399,184.2311,224.4649,184.4421,227.5899,184.5138,230.7149,184.1273,233.8399,184.375,233.8129,184.375,233.6918,186.4583,233.7068,188.5417,233.8163,190.625,233.5999,192.7083,233.8399,194.7917,233.8399,194.9839,230.7149,194.5728,227.5899,194.723,224.4649,194.9416,221.3399,194.7619,218.2149,194.7917,218.2386,194.7917,218.2038,192.7083,218.2769,190.625,218.298,188.5417,218.4183,186.4583,218.2149,184.375" style="stroke:#333333;stroke-width:1.0416666666666667;"/><polygon fill="none" points="216.1316,186.4583,216.1316,186.5313,216.9649,186.3145,217.7983,186.5254,218.6316,186.5971,219.4649,186.2106,220.2983,186.4583,220.2713,186.4583,220.1502,186.875,220.1651,187.2917,220.2746,187.7083,220.0582,188.125,220.2983,188.5417,220.2983,188.7339,219.4649,188.3228,218.6316,188.473,217.7983,188.6916,216.9649,188.5119,216.1316,188.5417,216.1553,188.5417,216.1205,188.125,216.1936,187.7083,216.2146,187.2917,216.335,186.875,216.1316,186.4583" style="stroke:#333333;stroke-width:1.0416666666666667;"/><polygon fill="none" points="216.1316,190.625,216.1316,190.698,216.9649,190.4811,217.7983,190.6921,218.6316,190.7638,219.4649,190.3773,220.2983,190.625,220.2713,190.625,220.1502,191.0417,220.1651,191.4583,220.2746,191.875,220.0582,192.2917,220.2983,192.7083,220.2983,192.9006,219.4649,192.4895,218.6316,192.6397,217.7983,192.8583,216.9649,192.6785,216.1316,192.7083,216.1553,192.7083,216.1205,192.2917,216.1936,191.875,216.2146,191.4583,216.335,191.0417,216.1316,190.625" style="stroke:#333333;stroke-width:1.0416666666666667;"/><text fill="#2E2E2E" font-family="Segoe Print" font-size="12.5" lengthAdjust="spacing" textLength="30.1941" x="177.6042" y="216.8111">Logo</text></g><!--entity Content--><g id="elem_Content"><polygon fill="none" filter="url(#f2pfv7nsezh3x)" points="280.2083,179.1667,280.2083,179.3856,290.5931,178.7351,300.9779,179.368,311.3627,179.583,321.7475,178.4235,332.1323,179.0857,342.5171,178.7224,352.9019,178.7672,363.2867,179.0957,373.6715,179.1667,373.5796,178.9449,374.3343,179.5883,374.7662,179.4526,375.413,179.8355,376.0859,180.2815,376.6177,180.3871,376.5902,180.3757,376.8837,180.9854,377.0957,181.5613,377.4072,182.1785,377.6708,182.7759,377.8381,183.3333,378.4482,183.3333,378.5371,192.9102,378.5457,202.487,378.1034,212.0638,378.321,221.6406,377.8381,231.2174,378.0634,231.3108,377.3627,231.7109,377.5676,232.4861,377.0108,232.9458,377.0331,233.6454,376.6177,234.1637,376.552,234.0049,376.0194,234.3858,375.5378,234.8898,374.8435,234.8803,374.2747,235.1738,373.6715,235.3841,373.6715,235.7369,363.2867,235.8177,352.9019,235.38,342.5171,235.6833,332.1323,234.7878,321.7475,235.6804,311.3627,235.9552,300.9779,235.8472,290.5931,236.0227,280.2083,235.3841,280.1441,235.2291,279.5324,234.9308,278.9473,234.6966,278.4327,234.633,277.8252,234.3448,277.2621,234.1637,277.4806,234.2543,276.9619,233.5513,276.6639,232.9396,276.603,232.4263,276.0718,231.7181,276.0417,231.2174,275.5009,231.2174,276.7177,221.6406,276.4955,212.0638,276.8068,202.487,275.7065,192.9102,276.0417,183.3333,276.1441,183.3757,276.4751,182.8225,276.3783,182.0921,276.7431,181.5528,277.0584,180.9931,277.2621,180.3871,277.3487,180.5961,277.8508,180.1416,278.502,180.0473,278.9562,179.4772,279.5291,179.1935,280.2083,179.1667" style="stroke:#333333;stroke-width:1.0416666666666667;"/><polygon fill="none" points="357.0048,184.375,357.0048,184.448,360.1298,184.2311,363.2548,184.4421,366.3798,184.5138,369.5048,184.1273,372.6298,184.375,372.6028,184.375,372.4817,186.4583,372.4966,188.5417,372.6061,190.625,372.3897,192.7083,372.6298,194.7917,372.6298,194.9839,369.5048,194.5728,366.3798,194.723,363.2548,194.9416,360.1298,194.7619,357.0048,194.7917,357.0285,194.7917,356.9937,192.7083,357.0668,190.625,357.0878,188.5417,357.2082,186.4583,357.0048,184.375" style="stroke:#333333;stroke-width:1.0416666666666667;"/><polygon fill="none" points="354.9215,186.4583,354.9215,186.5313,355.7548,186.3145,356.5881,186.5254,357.4215,186.5971,358.2548,186.2106,359.0881,186.4583,359.0612,186.4583,358.94,186.875,358.955,187.2917,359.0645,187.7083,358.8481,188.125,359.0881,188.5417,359.0881,188.7339,358.2548,188.3228,357.4215,188.473,356.5881,188.6916,355.7548,188.5119,354.9215,188.5417,354.9452,188.5417,354.9104,188.125,354.9835,187.7083,355.0045,187.2917,355.1248,186.875,354.9215,186.4583" style="stroke:#333333;stroke-width:1.0416666666666667;"/><polygon fill="none" points="354.9215,190.625,354.9215,190.698,355.7548,190.4811,356.5881,190.6921,357.4215,190.7638,358.2548,190.3773,359.0881,190.625,359.0612,190.625,358.94,191.0417,358.955,191.4583,359.0645,191.875,358.8481,192.2917,359.0881,192.7083,359.0881,192.9006,358.2548,192.4895,357.4215,192.6397,356.5881,192.8583,355.7548,192.6785,354.9215,192.7083,354.9452,192.7083,354.9104,192.2917,354.9835,191.875,355.0045,191.4583,355.1248,191.0417,354.9215,190.625" style="stroke:#333333;stroke-width:1.0416666666666667;"/><text fill="#2E2E2E" font-family="Segoe Print" font-size="12.5" lengthAdjust="spacing" textLength="49.7131" x="296.875" y="216.8111">Content</text></g><!--entity Income--><g id="elem_Income"><polygon fill="none" filter="url(#f2pfv7nsezh3x)" points="37.5,297.9167,37.5,298.1356,47.4718,297.4851,57.4436,298.118,67.4154,298.333,77.3872,297.1735,87.3589,297.8357,97.3307,297.4724,107.3025,297.5172,117.2743,297.8457,127.2461,297.9167,127.1542,297.6949,127.9089,298.3383,128.3409,298.2026,128.9876,298.5855,129.6605,299.0315,130.1924,299.1371,130.1649,299.1257,130.4583,299.7354,130.6703,300.3113,130.9819,300.9285,131.2454,301.5259,131.4128,302.0833,132.0229,302.0833,132.1118,311.6602,132.1203,321.237,131.678,330.8138,131.8957,340.3906,131.4128,349.9674,131.638,350.0608,130.9373,350.4609,131.1423,351.2361,130.5854,351.6958,130.6077,352.3954,130.1924,352.9137,130.1266,352.7549,129.594,353.1358,129.1124,353.6398,128.4181,353.6303,127.8493,353.9238,127.2461,354.1341,127.2461,354.4869,117.2743,354.5677,107.3025,354.13,97.3307,354.4333,87.3589,353.5378,77.3872,354.4304,67.4154,354.7052,57.4436,354.5972,47.4718,354.7727,37.5,354.1341,37.4358,353.9791,36.8241,353.6808,36.2389,353.4466,35.7244,353.383,35.1169,353.0948,34.5537,352.9137,34.7723,353.0043,34.2536,352.3013,33.9555,351.6896,33.8947,351.1763,33.3635,350.4681,33.3333,349.9674,32.7926,349.9674,34.0093,340.3906,33.7872,330.8138,34.0984,321.237,32.9981,311.6602,33.3333,302.0833,33.4357,302.1257,33.7668,301.5725,33.6699,300.8421,34.0348,300.3028,34.3501,299.7431,34.5537,299.1371,34.6403,299.3461,35.1424,298.8916,35.7937,298.7973,36.2479,298.2272,36.8208,297.9435,37.5,297.9167" style="stroke:#333333;stroke-width:1.0416666666666667;"/><polygon fill="none" points="110.5794,303.125,110.5794,303.198,113.7044,302.9811,116.8294,303.1921,119.9544,303.2638,123.0794,302.8773,126.2044,303.125,126.1774,303.125,126.0563,305.2083,126.0713,307.2917,126.1808,309.375,125.9644,311.4583,126.2044,313.5417,126.2044,313.7339,123.0794,313.3228,119.9544,313.473,116.8294,313.6916,113.7044,313.5119,110.5794,313.5417,110.6031,313.5417,110.5683,311.4583,110.6414,309.375,110.6625,307.2917,110.7828,305.2083,110.5794,303.125" style="stroke:#333333;stroke-width:1.0416666666666667;"/><polygon fill="none" points="108.4961,305.2083,108.4961,305.2813,109.3294,305.0645,110.1628,305.2754,110.9961,305.3471,111.8294,304.9606,112.6628,305.2083,112.6358,305.2083,112.5147,305.625,112.5296,306.0417,112.6391,306.4583,112.4227,306.875,112.6628,307.2917,112.6628,307.4839,111.8294,307.0728,110.9961,307.223,110.1628,307.4416,109.3294,307.2619,108.4961,307.2917,108.5198,307.2917,108.485,306.875,108.5581,306.4583,108.5791,306.0417,108.6995,305.625,108.4961,305.2083" style="stroke:#333333;stroke-width:1.0416666666666667;"/><polygon fill="none" points="108.4961,309.375,108.4961,309.448,109.3294,309.2311,110.1628,309.4421,110.9961,309.5138,111.8294,309.1273,112.6628,309.375,112.6358,309.375,112.5147,309.7917,112.5296,310.2083,112.6391,310.625,112.4227,311.0417,112.6628,311.4583,112.6628,311.6506,111.8294,311.2395,110.9961,311.3897,110.1628,311.6083,109.3294,311.4285,108.4961,311.4583,108.5198,311.4583,108.485,311.0417,108.5581,310.625,108.5791,310.2083,108.6995,309.7917,108.4961,309.375" style="stroke:#333333;stroke-width:1.0416666666666667;"/><text fill="#2E2E2E" font-family="Segoe Print" font-size="12.5" lengthAdjust="spacing" textLength="45.9961" x="54.1667" y="335.5611">Income</text></g><!--entity SMN--><g id="elem_SMN"><polygon fill="none" filter="url(#f2pfv7nsezh3x)" points="172.3958,297.9167,172.3958,298.1356,182.6558,297.4851,192.9159,298.118,203.1759,298.333,213.4359,297.1735,223.6959,297.8357,233.9559,297.4724,244.2159,297.9167,244.1649,297.7936,244.7961,298.1389,245.3025,298.183,246.0572,298.8265,246.4892,298.6908,247.1622,299.1371,247.0987,299.1108,247.5448,299.7837,247.6228,300.3042,247.9163,300.9139,248.1282,301.4898,248.3826,302.0833,248.5685,302.0833,248.6317,311.6602,248.9927,321.237,249.0816,330.8138,249.0901,340.3906,248.3826,349.9674,248.4643,350.0013,248.2872,350.6183,248.1197,351.2393,247.419,351.6394,247.6239,352.4146,247.1622,352.9137,247.1228,352.8186,246.6439,353.329,245.9179,353.2431,245.3853,353.624,244.9037,354.1279,244.2159,354.1341,244.2159,354.0833,233.9559,354.2438,223.6959,354.4869,213.4359,354.5677,203.1759,354.13,192.9159,354.4333,182.6558,353.5378,172.3958,354.1341,172.4336,354.2253,171.8794,354.0659,171.2764,353.7886,170.7095,353.5985,169.9746,353.0028,169.4496,352.9137,169.2403,352.8271,169.0061,352.2419,168.9425,351.7274,168.6543,351.1198,168.6918,350.6472,168.2292,349.9674,168.0472,349.9674,167.8718,340.3906,168.4669,330.8138,167.5345,321.237,167.6884,311.6602,168.2292,302.0833,168.4373,302.1696,168.613,301.552,168.9529,301.0024,168.8582,300.2728,169.3079,299.7687,169.4496,299.1371,169.528,299.3265,169.976,298.7414,170.6153,298.6181,171.2341,298.4452,171.8932,298.3698,172.3958,297.9167" style="stroke:#333333;stroke-width:1.0416666666666667;"/><polygon fill="none" points="227.5492,303.125,227.5492,303.198,230.6742,302.9811,233.7992,303.1921,236.9242,303.2638,240.0492,302.8773,243.1742,303.125,243.1473,303.125,243.0261,305.2083,243.0411,307.2917,243.1506,309.375,242.9342,311.4583,243.1742,313.5417,243.1742,313.7339,240.0492,313.3228,236.9242,313.473,233.7992,313.6916,230.6742,313.5119,227.5492,313.5417,227.5729,313.5417,227.5381,311.4583,227.6112,309.375,227.6323,307.2917,227.7526,305.2083,227.5492,303.125" style="stroke:#333333;stroke-width:1.0416666666666667;"/><polygon fill="none" points="225.4659,305.2083,225.4659,305.2813,226.2992,305.0645,227.1326,305.2754,227.9659,305.3471,228.7992,304.9606,229.6326,305.2083,229.6056,305.2083,229.4845,305.625,229.4994,306.0417,229.6089,306.4583,229.3925,306.875,229.6326,307.2917,229.6326,307.4839,228.7992,307.0728,227.9659,307.223,227.1326,307.4416,226.2992,307.2619,225.4659,307.2917,225.4896,307.2917,225.4548,306.875,225.5279,306.4583,225.5489,306.0417,225.6693,305.625,225.4659,305.2083" style="stroke:#333333;stroke-width:1.0416666666666667;"/><polygon fill="none" points="225.4659,309.375,225.4659,309.448,226.2992,309.2311,227.1326,309.4421,227.9659,309.5138,228.7992,309.1273,229.6326,309.375,229.6056,309.375,229.4845,309.7917,229.4994,310.2083,229.6089,310.625,229.3925,311.0417,229.6326,311.4583,229.6326,311.6506,228.7992,311.2395,227.9659,311.3897,227.1326,311.6083,226.2992,311.4285,225.4659,311.4583,225.4896,311.4583,225.4548,311.0417,225.5279,310.625,225.5489,310.2083,225.6693,309.7917,225.4659,309.375" style="stroke:#333333;stroke-width:1.0416666666666667;"/><text fill="#2E2E2E" font-family="Segoe Print" font-size="12.5" lengthAdjust="spacing" textLength="28.0701" x="189.0625" y="335.5611">SMN</text></g><!--entity AFPS--><g id="elem_AFPS"><polygon fill="none" filter="url(#f2pfv7nsezh3x)" points="289.5833,297.9167,289.5833,298.1356,300.2924,297.4851,311.0014,298.118,321.7105,298.333,332.4195,297.1735,343.1286,297.8357,353.8377,297.4724,364.5467,297.9167,364.4958,297.7936,365.1269,298.1389,365.6334,298.183,366.388,298.8265,366.82,298.6908,367.493,299.1371,367.4295,299.1108,367.8756,299.7837,367.9536,300.3042,368.2471,300.9139,368.4591,301.4898,368.7134,302.0833,368.8993,302.0833,368.9625,311.6602,369.3235,321.237,369.4124,330.8138,369.4209,340.3906,368.7134,349.9674,368.7951,350.0013,368.618,350.6183,368.4505,351.2393,367.7498,351.6394,367.9547,352.4146,367.493,352.9137,367.4536,352.8186,366.9747,353.329,366.2487,353.2431,365.7161,353.624,365.2345,354.1279,364.5467,354.1341,364.5467,354.0833,353.8377,354.2438,343.1286,354.4869,332.4195,354.5677,321.7105,354.13,311.0014,354.4333,300.2924,353.5378,289.5833,354.1341,289.6211,354.2253,289.0669,354.0659,288.4639,353.7886,287.897,353.5985,287.1621,353.0028,286.6371,352.9137,286.4278,352.8271,286.1936,352.2419,286.13,351.7274,285.8418,351.1198,285.8793,350.6472,285.4167,349.9674,285.2347,349.9674,285.0593,340.3906,285.6544,330.8138,284.722,321.237,284.8759,311.6602,285.4167,302.0833,285.6248,302.1696,285.8005,301.552,286.1404,301.0024,286.0457,300.2728,286.4954,299.7687,286.6371,299.1371,286.7155,299.3265,287.1635,298.7414,287.8028,298.6181,288.4216,298.4452,289.0807,298.3698,289.5833,297.9167" style="stroke:#333333;stroke-width:1.0416666666666667;"/><polygon fill="none" points="347.88,303.125,347.88,303.198,351.005,302.9811,354.13,303.1921,357.255,303.2638,360.38,302.8773,363.505,303.125,363.4781,303.125,363.357,305.2083,363.3719,307.2917,363.4814,309.375,363.265,311.4583,363.505,313.5417,363.505,313.7339,360.38,313.3228,357.255,313.473,354.13,313.6916,351.005,313.5119,347.88,313.5417,347.9037,313.5417,347.869,311.4583,347.942,309.375,347.9631,307.2917,348.0834,305.2083,347.88,303.125" style="stroke:#333333;stroke-width:1.0416666666666667;"/><polygon fill="none" points="345.7967,305.2083,345.7967,305.2813,346.63,305.0645,347.4634,305.2754,348.2967,305.3471,349.13,304.9606,349.9634,305.2083,349.9364,305.2083,349.8153,305.625,349.8302,306.0417,349.9397,306.4583,349.7233,306.875,349.9634,307.2917,349.9634,307.4839,349.13,307.0728,348.2967,307.223,347.4634,307.4416,346.63,307.2619,345.7967,307.2917,345.8204,307.2917,345.7856,306.875,345.8587,306.4583,345.8797,306.0417,346.0001,305.625,345.7967,305.2083" style="stroke:#333333;stroke-width:1.0416666666666667;"/><polygon fill="none" points="345.7967,309.375,345.7967,309.448,346.63,309.2311,347.4634,309.4421,348.2967,309.5138,349.13,309.1273,349.9634,309.375,349.9364,309.375,349.8153,309.7917,349.8302,310.2083,349.9397,310.625,349.7233,311.0417,349.9634,311.4583,349.9634,311.6506,349.13,311.2395,348.2967,311.3897,347.4634,311.6083,346.63,311.4285,345.7967,311.4583,345.8204,311.4583,345.7856,311.0417,345.8587,310.625,345.8797,310.2083,346.0001,309.7917,345.7967,309.375" style="stroke:#333333;stroke-width:1.0416666666666667;"/><text fill="#2E2E2E" font-family="Segoe Print" font-size="12.5" lengthAdjust="spacing" textLength="31.2134" x="306.25" y="335.5611">AFPS</text></g><!--entity RCIVA--><g id="elem_RCIVA"><polygon fill="none" filter="url(#f2pfv7nsezh3x)" points="245.3125,416.6667,245.3125,416.8856,255.5565,416.2351,265.8005,416.868,276.0445,417.083,286.2885,415.9235,296.5324,416.5857,306.7764,416.2224,317.0204,416.2672,327.2644,416.6667,327.2553,416.6448,327.7618,416.689,328.5165,417.3324,328.9484,417.1967,329.5951,417.5795,330.2107,417.8871,330.3492,417.9445,330.4272,418.4649,330.7207,419.0746,330.9327,419.6506,331.2443,420.2678,331.4311,420.8333,331.6802,420.8333,332.0412,430.4102,332.1301,439.987,332.1386,449.5638,331.6963,459.1406,331.4311,468.7174,331.5798,468.779,331.4123,469.4,330.7116,469.8001,330.9165,470.5754,330.3596,471.0351,330.2107,471.6637,330.2816,471.835,329.5557,471.749,329.0231,472.1299,328.5415,472.6339,327.8472,472.6244,327.2644,472.8841,327.2644,472.9938,317.0204,473.2369,306.7764,473.3177,296.5324,472.88,286.2885,473.1833,276.0445,472.2878,265.8005,473.1804,255.5565,473.4552,245.3125,472.8841,245.3716,473.0267,244.8047,472.8367,244.0698,472.241,243.4581,471.9427,242.8729,471.7085,242.3662,471.6637,242.3473,471.6559,242.0591,471.0484,242.0967,470.5758,241.578,469.8727,241.2799,469.2611,241.1458,468.7174,241.3836,468.7174,240.4512,459.1406,240.6051,449.5638,241.8218,439.987,241.5997,430.4102,241.1458,420.8333,241.3815,420.9309,241.2867,420.2013,241.7364,419.6972,242.0675,419.144,241.9706,418.4135,242.3662,417.8871,242.3535,417.8563,242.9722,417.6834,243.6313,417.608,244.1334,417.1535,244.7847,417.0591,245.3125,416.6667" style="stroke:#333333;stroke-width:1.0416666666666667;"/><polygon fill="none" points="310.5977,421.875,310.5977,421.948,313.7227,421.7311,316.8477,421.9421,319.9727,422.0138,323.0977,421.6273,326.2227,421.875,326.1958,421.875,326.0746,423.9583,326.0896,426.0417,326.1991,428.125,325.9827,430.2083,326.2227,432.2917,326.2227,432.4839,323.0977,432.0728,319.9727,432.223,316.8477,432.4416,313.7227,432.2619,310.5977,432.2917,310.6214,432.2917,310.5866,430.2083,310.6597,428.125,310.6808,426.0417,310.8011,423.9583,310.5977,421.875" style="stroke:#333333;stroke-width:1.0416666666666667;"/><polygon fill="none" points="308.5144,423.9583,308.5144,424.0313,309.3477,423.8145,310.1811,424.0254,311.0144,424.0971,311.8477,423.7106,312.6811,423.9583,312.6541,423.9583,312.533,424.375,312.5479,424.7917,312.6574,425.2083,312.441,425.625,312.6811,426.0417,312.6811,426.2339,311.8477,425.8228,311.0144,425.973,310.1811,426.1916,309.3477,426.0119,308.5144,426.0417,308.5381,426.0417,308.5033,425.625,308.5764,425.2083,308.5974,424.7917,308.7178,424.375,308.5144,423.9583" style="stroke:#333333;stroke-width:1.0416666666666667;"/><polygon fill="none" points="308.5144,428.125,308.5144,428.198,309.3477,427.9811,310.1811,428.1921,311.0144,428.2638,311.8477,427.8773,312.6811,428.125,312.6541,428.125,312.533,428.5417,312.5479,428.9583,312.6574,429.375,312.441,429.7917,312.6811,430.2083,312.6811,430.4006,311.8477,429.9895,311.0144,430.1397,310.1811,430.3583,309.3477,430.1785,308.5144,430.2083,308.5381,430.2083,308.5033,429.7917,308.5764,429.375,308.5974,428.9583,308.7178,428.5417,308.5144,428.125" style="stroke:#333333;stroke-width:1.0416666666666667;"/><text fill="#2E2E2E" font-family="Segoe Print" font-size="12.5" lengthAdjust="spacing" textLength="38.2019" x="261.9792" y="454.3111">RCIVA</text></g><!--entity ANS--><g id="elem_ANS"><polygon fill="none" filter="url(#f2pfv7nsezh3x)" points="372.3958,416.6667,372.3958,416.8856,382.3367,416.2351,392.2776,416.868,402.2185,417.083,412.1594,415.9235,422.1002,416.5857,432.0411,416.2224,441.982,416.6667,441.9311,416.5436,442.5622,416.8889,443.0687,416.933,443.8233,417.5765,444.2553,417.4408,444.9283,417.8871,444.8649,417.8608,445.3109,418.5337,445.3889,419.0542,445.6824,419.6639,445.8944,420.2398,446.1487,420.8333,446.3346,420.8333,446.3978,430.4102,446.7588,439.987,446.8477,449.5638,446.8562,459.1406,446.1487,468.7174,446.2304,468.7513,446.0533,469.3683,445.8858,469.9893,445.1851,470.3894,445.39,471.1646,444.9283,471.6637,444.8889,471.5686,444.41,472.079,443.684,471.9931,443.1514,472.374,442.6698,472.8779,441.982,472.8841,441.982,472.8333,432.0411,472.9938,422.1002,473.2369,412.1594,473.3177,402.2185,472.88,392.2776,473.1833,382.3367,472.2878,372.3958,472.8841,372.4336,472.9753,371.8794,472.8159,371.2764,472.5386,370.7095,472.3485,369.9746,471.7528,369.4496,471.6637,369.2403,471.5771,369.0061,470.9919,368.9425,470.4774,368.6543,469.8698,368.6918,469.3972,368.2292,468.7174,368.0472,468.7174,367.8718,459.1406,368.4669,449.5638,367.5345,439.987,367.6884,430.4102,368.2292,420.8333,368.4373,420.9196,368.613,420.302,368.9529,419.7524,368.8582,419.0228,369.3079,418.5187,369.4496,417.8871,369.528,418.0765,369.976,417.4914,370.6153,417.3681,371.2341,417.1952,371.8932,417.1198,372.3958,416.6667" style="stroke:#333333;stroke-width:1.0416666666666667;"/><polygon fill="none" points="425.3153,421.875,425.3153,421.948,428.4403,421.7311,431.5653,421.9421,434.6903,422.0138,437.8153,421.6273,440.9403,421.875,440.9134,421.875,440.7923,423.9583,440.8072,426.0417,440.9167,428.125,440.7003,430.2083,440.9403,432.2917,440.9403,432.4839,437.8153,432.0728,434.6903,432.223,431.5653,432.4416,428.4403,432.2619,425.3153,432.2917,425.339,432.2917,425.3043,430.2083,425.3773,428.125,425.3984,426.0417,425.5187,423.9583,425.3153,421.875" style="stroke:#333333;stroke-width:1.0416666666666667;"/><polygon fill="none" points="423.232,423.9583,423.232,424.0313,424.0653,423.8145,424.8987,424.0254,425.732,424.0971,426.5653,423.7106,427.3987,423.9583,427.3717,423.9583,427.2506,424.375,427.2655,424.7917,427.375,425.2083,427.1586,425.625,427.3987,426.0417,427.3987,426.2339,426.5653,425.8228,425.732,425.973,424.8987,426.1916,424.0653,426.0119,423.232,426.0417,423.2557,426.0417,423.2209,425.625,423.294,425.2083,423.315,424.7917,423.4354,424.375,423.232,423.9583" style="stroke:#333333;stroke-width:1.0416666666666667;"/><polygon fill="none" points="423.232,428.125,423.232,428.198,424.0653,427.9811,424.8987,428.1921,425.732,428.2638,426.5653,427.8773,427.3987,428.125,427.3717,428.125,427.2506,428.5417,427.2655,428.9583,427.375,429.375,427.1586,429.7917,427.3987,430.2083,427.3987,430.4006,426.5653,429.9895,425.732,430.1397,424.8987,430.3583,424.0653,430.1785,423.232,430.2083,423.2557,430.2083,423.2209,429.7917,423.294,429.375,423.315,428.9583,423.4354,428.5417,423.232,428.125" style="stroke:#333333;stroke-width:1.0416666666666667;"/><text fill="#2E2E2E" font-family="Segoe Print" font-size="12.5" lengthAdjust="spacing" textLength="25.8362" x="389.0625" y="454.3111">ANS</text></g><!--entity Subtitle--><g id="elem_Subtitle"><polygon fill="none" filter="url(#f2pfv7nsezh3x)" points="54.1667,416.6667,54.1667,416.8856,64.3867,416.2351,74.6067,416.868,84.8267,417.083,95.0467,415.9235,105.2667,416.5857,115.4867,416.2224,125.7067,416.2672,135.9266,416.5957,146.1466,416.6667,146.0548,416.4449,146.8095,417.0883,147.2414,416.9526,147.8881,417.3355,148.5611,417.7815,149.0929,417.8871,149.0654,417.8757,149.3589,418.4854,149.5708,419.0613,149.8824,419.6785,150.1459,420.2759,150.3133,420.8333,150.9234,420.8333,151.0123,430.4102,151.0209,439.987,150.5786,449.5638,150.7962,459.1406,150.3133,468.7174,150.5386,468.8108,149.8379,469.2109,150.0428,469.9861,149.486,470.4458,149.5082,471.1454,149.0929,471.6637,149.0271,471.5049,148.4946,471.8858,148.013,472.3898,147.3187,472.3803,146.7499,472.6738,146.1466,472.8841,146.1466,473.2369,135.9266,473.3177,125.7067,472.88,115.4867,473.1833,105.2667,472.2878,95.0467,473.1804,84.8267,473.4552,74.6067,473.3472,64.3867,473.5227,54.1667,472.8841,54.1025,472.7291,53.4908,472.4308,52.9056,472.1966,52.3911,472.133,51.7835,471.8448,51.2204,471.6637,51.439,471.7543,50.9203,471.0513,50.6222,470.4396,50.5614,469.9263,50.0302,469.2181,50,468.7174,49.4592,468.7174,50.676,459.1406,50.4538,449.5638,50.7651,439.987,49.6648,430.4102,50,420.8333,50.1024,420.8757,50.4335,420.3225,50.3366,419.5921,50.7015,419.0528,51.0167,418.4931,51.2204,417.8871,51.307,418.0961,51.8091,417.6416,52.4604,417.5473,52.9146,416.9772,53.4874,416.6935,54.1667,416.6667" style="stroke:#333333;stroke-width:1.0416666666666667;"/><polygon fill="none" points="129.48,421.875,129.48,421.948,132.605,421.7311,135.73,421.9421,138.855,422.0138,141.98,421.6273,145.105,421.875,145.078,421.875,144.9569,423.9583,144.9718,426.0417,145.0813,428.125,144.8649,430.2083,145.105,432.2917,145.105,432.4839,141.98,432.0728,138.855,432.223,135.73,432.4416,132.605,432.2619,129.48,432.2917,129.5037,432.2917,129.4689,430.2083,129.542,428.125,129.563,426.0417,129.6833,423.9583,129.48,421.875" style="stroke:#333333;stroke-width:1.0416666666666667;"/><polygon fill="none" points="127.3966,423.9583,127.3966,424.0313,128.23,423.8145,129.0633,424.0254,129.8966,424.0971,130.73,423.7106,131.5633,423.9583,131.5363,423.9583,131.4152,424.375,131.4302,424.7917,131.5396,425.2083,131.3233,425.625,131.5633,426.0417,131.5633,426.2339,130.73,425.8228,129.8966,425.973,129.0633,426.1916,128.23,426.0119,127.3966,426.0417,127.4203,426.0417,127.3856,425.625,127.4586,425.2083,127.4797,424.7917,127.6,424.375,127.3966,423.9583" style="stroke:#333333;stroke-width:1.0416666666666667;"/><polygon fill="none" points="127.3966,428.125,127.3966,428.198,128.23,427.9811,129.0633,428.1921,129.8966,428.2638,130.73,427.8773,131.5633,428.125,131.5363,428.125,131.4152,428.5417,131.4302,428.9583,131.5396,429.375,131.3233,429.7917,131.5633,430.2083,131.5633,430.4006,130.73,429.9895,129.8966,430.1397,129.0633,430.3583,128.23,430.1785,127.3966,430.2083,127.4203,430.2083,127.3856,429.7917,127.4586,429.375,127.4797,428.9583,127.6,428.5417,127.3966,428.125" style="stroke:#333333;stroke-width:1.0416666666666667;"/><text fill="#2E2E2E" font-family="Segoe Print" font-size="12.5" lengthAdjust="spacing" textLength="48.23" x="70.8333" y="454.3111">Subtitle</text></g><!--link Calculator to Title--><g id="link_Calculator_Title"><path d="M170.3229,116.9375 L170.5284,117.1448 L162.6368,123.7458 L155.9498,131.5621 L148.8705,138.9826 L140.5011,145.1016 L133.8416,152.9456 L126.2195,159.8185 L118.9805,167.0779 L112.0744,174.6732 " fill="none" style="stroke:#28A428;stroke-width:0.8333333333333335;"/><polygon fill="#28A428" points="107.6354,179.0729,107.6613,179.1411,109.5027,178.2104,111.4959,177.6795,113.4397,177.0185,115.2209,175.9291,117.2271,175.4326,117.227,175.4056,116.0479,175.2793,114.8695,175.289,113.6915,175.3933,112.512,175.1716,111.3346,175.4065,111.5268,175.4073,111.121,174.227,111.2764,173.0492,111.5003,171.8716,111.3257,170.6923,111.3607,169.514,111.3828,169.5226,110.6053,171.4217,109.9284,173.36,109.2029,175.2795,108.57,177.235,107.6354,179.0729" style="stroke:#28A428;stroke-width:0.8333333333333335;"/></g><!--link Calculator to Logo--><g id="link_Calculator_Logo"><path d="M197.9167,116.9375 L198.2086,116.9375 L197.3412,128.1146 L198.1851,139.2917 L198.4718,150.4688 L196.9258,161.6458 L197.9167,172.8229 " fill="none" style="stroke:#28A428;stroke-width:0.8333333333333335;"/><polygon fill="#28A428" points="197.9167,179.0729,197.9834,179.1026,198.6185,177.1395,199.6447,175.3502,200.5435,173.5043,201.0236,171.4723,202.0833,169.6979,202.0643,169.6788,201.1453,170.4265,200.3225,171.2704,199.5666,172.1812,198.5803,172.8615,197.9167,173.8646,198.0526,174.0005,196.9286,172.8765,196.2014,172.1494,195.5227,171.4706,194.5623,170.5102,193.75,169.6979,193.7717,169.7075,194.5732,171.5684,195.4733,173.4731,196.3259,175.3566,197.2692,177.2805,197.9167,179.0729" style="stroke:#28A428;stroke-width:0.8333333333333335;"/></g><!--link Calculator to Content--><g id="link_Calculator_Content"><path d="M228.1979,116.9375 L228.3936,117.1541 L235.8314,123.7537 L244.4163,131.6232 L252.6277,139.0792 L259.6107,145.1751 L268.2217,153.0736 L275.9162,159.9573 L283.9754,167.2449 L292.3517,174.8834 " fill="none" style="stroke:#28A428;stroke-width:0.8333333333333335;"/><polygon fill="#28A428" points="296.9896,179.0729,297.0563,179.1025,296.0253,177.1393,295.3854,175.3497,294.6181,173.5035,293.4321,171.4714,292.8257,169.6967,292.7988,169.6953,292.7376,170.8661,292.8123,172.0439,292.9815,173.2264,292.8251,174.3925,293.1247,175.5816,293.1344,175.7736,291.9366,175.4229,290.7672,175.6326,289.6013,175.9108,288.4152,175.791,287.2397,175.8806,287.2471,175.9031,289.1862,176.5085,291.1589,177.2164,293.1155,177.8749,295.1029,178.6277,296.9896,179.0729" style="stroke:#28A428;stroke-width:0.8333333333333335;"/></g><!--link Content to Income--><g id="link_Content_Income"><path d="M275.7708,232.7917 L275.8964,233.0552 L266.2779,236.6783 L257.3955,241.8463 L248.2735,246.5112 L238.363,249.5218 L229.4974,254.725 L220.0436,258.6938 L210.8239,263.1539 L201.7669,267.9554 L192.1491,271.5802 L183.6477,277.5473 L173.6948,280.469 L164.7079,285.4175 L155.8388,290.6131 L146.284,294.3702 L137.0899,298.8839 " fill="none" style="stroke:#28A428;stroke-width:0.8333333333333335;"/><polygon fill="#28A428" points="131.4479,301.5729,131.4499,301.6459,133.4952,301.3747,135.5519,301.5311,137.605,301.5483,139.6458,301.1075,141.7035,301.3006,141.6945,301.2752,140.5433,300.7673,139.4374,300.3877,138.3632,300.0972,137.1801,299.4995,136.1495,299.332,136.3307,299.3963,136.337,298.1481,136.8723,297.0875,137.4721,296.0498,137.6963,294.8789,138.1181,293.7781,138.1361,293.7935,136.7757,295.3298,135.4971,296.9363,134.1791,298.509,132.9365,300.1462,131.4479,301.5729" style="stroke:#28A428;stroke-width:0.8333333333333335;"/></g><!--link Content to SMN--><g id="link_Content_SMN"><path d="M299.2396,235.6875 L299.4442,235.8957 L291.4886,242.4964 L284.7324,250.3178 L277.5857,257.7417 L269.1545,263.8584 L262.4256,271.7075 L254.7385,278.5814 L247.4327,285.8434 L240.4583,293.4427 " fill="none" style="stroke:#28A428;stroke-width:0.8333333333333335;"/><polygon fill="#28A428" points="236,297.8229,236.0256,297.8913,237.8711,296.9686,239.8666,296.4465,241.8132,295.794,243.5992,294.7125,245.6076,294.2249,245.6073,294.1979,244.4278,294.0664,243.2495,294.0709,242.072,294.1699,240.8916,293.9431,239.7153,294.1728,239.9075,294.1745,239.5068,292.9924,239.6674,291.8152,239.8965,290.6387,239.7271,289.4586,239.7673,288.2804,239.7894,288.2891,239.0036,290.1849,238.3181,292.1202,237.5842,294.0364,236.9426,295.9891,236,297.8229" style="stroke:#28A428;stroke-width:0.8333333333333335;"/></g><!--link Content to AFPS--><g id="link_Content_AFPS"><path d="M327.0833,235.6875 L327.3753,235.6875 L326.5079,246.8646 L327.3518,258.0417 L327.6384,269.2188 L326.0925,280.3958 L327.0833,291.5729 " fill="none" style="stroke:#28A428;stroke-width:0.8333333333333335;"/><polygon fill="#28A428" points="327.0833,297.8229,327.15,297.8526,327.7852,295.8895,328.8113,294.1002,329.7101,292.2543,330.1903,290.2223,331.25,288.4479,331.2309,288.4288,330.312,289.1765,329.4892,290.0204,328.7333,290.9312,327.7469,291.6115,327.0833,292.6146,327.2193,292.7505,326.0953,291.6265,325.3681,290.8994,324.6894,290.2206,323.7289,289.2602,322.9167,288.4479,322.9383,288.4575,323.7399,290.3184,324.64,292.2231,325.4925,294.1066,326.4358,296.0305,327.0833,297.8229" style="stroke:#28A428;stroke-width:0.8333333333333335;"/></g><!--link Card to Card Item--><g id="link_Card_Card Item"><path d="M286.4583,591.9375 L286.7503,591.9375 L285.8829,603.1146 L286.7268,614.2917 L287.0134,625.4688 L285.4675,636.6458 L286.4583,647.8229 " fill="none" style="stroke:#28A428;stroke-width:0.8333333333333335;"/><polygon fill="#28A428" points="286.4583,654.0729,286.525,654.1026,287.1602,652.1395,288.1863,650.3502,289.0851,648.5043,289.5653,646.4723,290.625,644.6979,290.6059,644.6788,289.687,645.4265,288.8642,646.2704,288.1083,647.1812,287.1219,647.8615,286.4583,648.8646,286.5943,649.0005,285.4703,647.8765,284.7431,647.1494,284.0644,646.4706,283.1039,645.5102,282.2917,644.6979,282.3133,644.7075,283.1149,646.5684,284.015,648.4731,284.8675,650.3566,285.8108,652.2805,286.4583,654.0729" style="stroke:#28A428;stroke-width:0.8333333333333335;"/></g><!--link AFPS to Card--><g id="link_AFPS_Card"><path d="M285.3542,350.5208 L285.4099,350.6006 L283.4897,351.5906 L281.8963,353.0482 L280.1965,354.3535 L278.1466,355.1582 L276.5813,356.6558 L276.5595,356.6272 L274.6824,357.8554 L272.9152,359.2278 L271.2245,360.7004 L269.2704,361.8275 L267.6852,363.4386 L267.8501,363.6349 L265.7336,364.6975 L264.0985,366.3331 L262.5222,368.0386 L260.6041,369.3374 L258.8658,370.8501 L258.8874,370.8731 L257.1471,372.4435 L255.5052,374.1188 L253.8158,375.7434 L252.2171,377.4646 L250.3229,378.8711 L250.5497,379.0835 L248.9392,380.8083 L247.1824,382.3962 L245.6398,384.1846 L244.1072,385.9824 L242.2566,387.4824 L241.9965,387.2731 L241.0234,389.5158 L239.1938,391.0693 L238.0153,393.1468 L236.1663,394.6847 L234.8669,396.6649 L234.8405,396.6472 L233.8496,398.8027 L232.2428,400.5461 L230.9994,402.5327 L229.7865,404.5396 L228.3536,406.3994 L228.5239,406.4895 L227.2646,408.452 L226.2963,410.5685 L224.8572,412.4357 L224.1204,414.6748 L222.9167,416.6667 L223.1581,416.7448 L222.1118,419.8233 L221.1854,422.9407 L219.702,425.8778 L218.6268,428.947 L217.9135,432.1333 L217.6267,432.11 L217.6342,435.2294 L217.3187,438.3226 L217.4718,441.4539 L216.8247,444.5202 L216.6532,447.6251 L216.4956,447.6054 L217.142,450.7036 L217.1146,453.7174 L217.5664,456.7913 L218.4868,459.9238 L218.5726,462.9519 L218.7656,463.0104 L219.8051,466.0448 L220.2442,468.8973 L221.4353,471.9777 L222.4626,475.0084 L223.108,477.9235 L222.9091,477.8326 L224.3853,480.7902 L225.7964,483.7181 L227.3354,486.7045 L228.3769,489.4636 L229.6963,492.3496 L229.8807,492.4584 L231.091,494.9574 L232.6572,497.6665 L234.7436,500.6824 L235.8724,503.1334 L237.7738,506.0402 L237.9664,506.176 L239.6527,508.6483 L241.2738,511.0746 L243.042,513.6046 L245.1501,516.3744 L246.7772,518.8049 L246.6692,518.7181 L248.864,521.3064 L250.3242,523.3041 L252.6196,525.9733 L254.4447,528.2644 L256.1432,530.4537 " fill="none" style="stroke:#FF0000;stroke-width:0.8333333333333335;stroke-dasharray:7.0,7.0;"/><polygon fill="#FF0000" points="260.1875,535.2188,260.2575,535.2393,259.4715,533.2095,259.096,531.3001,258.5868,529.3515,257.638,527.2739,257.2977,525.3749,257.2708,525.3727,257.054,526.5374,256.9728,527.7132,256.9858,528.8968,256.6741,530.0537,256.8172,531.2479,256.8329,531.4394,255.6248,530.9336,254.4625,530.9872,253.3057,531.109,252.1165,530.8338,250.9443,530.7674,250.9546,530.7887,252.7881,531.6476,254.6685,532.6038,256.5262,533.513,258.4271,534.5117,260.1875,535.2188" style="stroke:#FF0000;stroke-width:0.8333333333333335;"/></g><!--link Content to RCIVA--><g id="link_Content_RCIVA"><path d="M352.0313,235.4167 L352.1083,235.4761 L353.7093,237.6742 L355.7621,240.2205 L357.6678,242.6535 L359.0896,244.7135 L361.1812,247.2898 L361.1515,247.2695 L362.8338,249.8459 L364.6661,252.5244 L366.6026,255.2738 L368.1799,257.7787 L370.2603,260.6261 L370.4822,260.7543 L371.6815,263.3787 L373.5289,266.3773 L375.4553,269.4216 L376.9217,272.2002 L378.6301,275.1185 L378.6588,275.1317 L380.0211,278.1806 L381.5141,281.2894 L382.9441,284.3693 L384.4944,287.5043 L385.6523,290.4596 L385.9485,290.5535 L386.9594,293.7312 L387.7793,296.8483 L388.8788,300.0541 L389.9914,303.264 L390.6888,306.3423 L390.3586,306.2928 L391.4819,309.6121 L391.5179,312.7687 L392.3806,316.049 L392.392,319.2018 L393.1011,322.4591 L393.0694,322.4575 L393.2739,325.6861 L392.7385,328.8755 L392.6397,332.0881 L392.5775,335.3026 L392.2509,338.503 L392.4353,338.559 L391.299,341.6352 L390.4778,344.8071 L389.1468,347.8243 L388.5762,351.0722 L387.5,354.1667 L387.7224,354.2889 L385.7213,357.8307 L383.8306,361.4331 L381.4268,364.7536 L379.3991,368.2807 L377.7047,371.991 L377.4772,371.815 L375.3074,375.0447 L372.8813,378.0761 L370.8271,381.3952 L368.1379,384.223 L365.8261,387.3429 L365.7149,387.2296 L363.1663,390.1031 L360.142,392.4923 L357.456,395.2259 L355.101,398.2966 L352.1566,400.767 L352.282,400.925 L349.3343,403.4416 L345.9966,405.4668 L343.1474,408.1075 L340.1918,410.614 L336.9882,412.8082 " fill="none" style="stroke:#28A428;stroke-width:0.8333333333333335;"/><polygon fill="#28A428" points="331.9375,416.4896,331.9528,416.5609,333.9134,415.9179,335.9637,415.6932,337.9849,415.3323,339.9097,414.5234,341.9678,414.3346,341.9637,414.308,340.7806,414.0057,339.6187,413.8379,338.4713,413.7635,337.2735,413.3672,336.1464,413.4217,336.3363,413.4515,336.1128,412.2236,336.4437,411.0825,336.8423,409.9521,336.8473,408.76,337.0593,407.6003,337.0798,407.6122,336.0253,409.3726,335.0643,411.187,334.0582,412.9753,333.1381,414.8133,331.9375,416.4896" style="stroke:#28A428;stroke-width:0.8333333333333335;"/></g><!--link Content to ANS--><g id="link_Content_ANS"><path d="M356.5313,235.6458 L356.6037,235.7108 L358.7748,238.1825 L361.3707,241.0348 L363.8283,243.7631 L365.8308,246.084 L368.4632,248.9689 L368.4348,248.9468 L370.6527,251.8673 L373.0138,254.899 L375.4744,258.0081 L377.5919,260.8506 L380.1901,264.0664 L380.4062,264.2043 L382.045,267.2004 L384.3146,270.5991 L386.6612,274.047 L388.56,277.209 L390.6943,280.5213 L390.7229,280.5349 L392.3338,283.994 L394.0746,287.5149 L395.7527,291.006 L397.5505,294.554 L398.9583,297.9167 L399.2531,298.0148 L400.2453,300.9857 L401.0475,303.8934 L402.1279,306.8937 L403.2213,309.8983 L403.9015,312.7654 L403.5771,312.6865 L404.9372,315.8452 L405.229,318.7443 L406.3329,321.8408 L406.6005,324.734 L407.5536,327.7938 L407.5223,327.7886 L408.3955,330.8518 L408.538,333.7925 L409.1116,336.8055 L409.7215,339.8246 L410.0702,342.7999 L410.2619,342.8198 L410.3757,345.756 L410.8171,348.7263 L410.7286,351.6414 L411.4305,354.6387 L411.6069,357.5814 L411.8604,357.594 L411.955,360.4626 L412.1754,363.3374 L411.8111,366.1832 L411.8754,369.0502 L412.3194,371.9362 L412.0318,371.9352 L412.301,374.6812 L412.246,377.4262 L412.6613,380.1727 L412.2737,382.9165 L412.3634,385.662 L412.2047,385.6562 L412.3752,388.2447 L411.8673,390.8086 L411.8418,393.39 L412.2884,395.9886 L411.8944,398.5566 L412.0956,398.5707 L412.0683,400.9526 L411.4152,403.2909 L411.546,405.6838 L411.506,408.0648 L411.068,410.418 " fill="none" style="stroke:#28A428;stroke-width:0.8333333333333335;"/><polygon fill="#28A428" points="410.5417,416.6458,410.6056,416.681,411.4039,414.7784,412.577,413.0818,413.6281,411.3182,414.2777,409.3339,415.4831,407.655,415.4657,407.6344,414.487,408.3021,413.5961,409.0737,412.7661,409.9175,411.726,410.5124,410.9803,411.456,411.1272,411.58,410.0529,410.4143,409.4074,409.6106,408.8143,408.8511,407.9168,407.8346,407.1793,406.9532,407.2017,406.961,407.8413,408.8881,408.5828,410.8506,409.2752,412.796,410.0613,414.774,410.5417,416.6458" style="stroke:#28A428;stroke-width:0.8333333333333335;"/></g><!--link ANS to Card--><g id="link_ANS_Card"><path d="M378.9583,473.1875 L379.1611,473.3975 L371.0776,479.9978 L364.1829,487.8291 L356.9011,495.2596 L348.3463,501.3718 L341.4786,509.2312 L333.6612,516.107 L326.2217,523.3742 L319.1108,530.9816 " fill="none" style="stroke:#FF0000;stroke-width:0.8333333333333335;stroke-dasharray:7.0,7.0;"/><polygon fill="#FF0000" points="314.6146,535.3229,314.6396,535.3915,316.493,534.4849,318.493,533.9802,320.4452,533.3446,322.2405,532.2786,324.253,531.8084,324.2526,531.7814,323.0721,531.6397,321.8941,531.634,320.7176,531.7228,319.5355,531.4858,318.3614,531.7052,318.5536,531.7085,318.1632,530.523,318.334,529.3473,318.5733,528.1728,318.4142,526.9913,318.4646,525.8135,318.4866,525.8224,317.6844,527.7112,316.9821,529.6405,316.2316,531.5503,315.5731,533.4974,314.6146,535.3229" style="stroke:#FF0000;stroke-width:0.8333333333333335;"/></g><!--link RCIVA to Card--><g id="link_RCIVA_Card"><path d="M286.4583,473.1875 L286.7503,473.1875 L285.8829,484.3646 L286.7268,495.5417 L287.0134,506.7188 L285.4675,517.8958 L286.4583,529.0729 " fill="none" style="stroke:#FF0000;stroke-width:0.8333333333333335;stroke-dasharray:7.0,7.0;"/><polygon fill="#FF0000" points="286.4583,535.3229,286.525,535.3526,287.1602,533.3895,288.1863,531.6002,289.0851,529.7543,289.5653,527.7223,290.625,525.9479,290.6059,525.9288,289.687,526.6765,288.8642,527.5204,288.1083,528.4312,287.1219,529.1115,286.4583,530.1146,286.5943,530.2505,285.4703,529.1265,284.7431,528.3994,284.0644,527.7206,283.1039,526.7602,282.2917,525.9479,282.3133,525.9575,283.1149,527.8184,284.015,529.7231,284.8675,531.6066,285.8108,533.5305,286.4583,535.3229" style="stroke:#FF0000;stroke-width:0.8333333333333335;"/></g><!--link Income to Subtitle--><g id="link_Income_Subtitle"><path d="M86.4479,354.4375 L86.7365,354.4813 L87.577,365.5424 L90.1094,376.8602 L92.0909,388.0944 L92.2605,399.0537 L94.9381,410.3935 " fill="none" style="stroke:#FF0000;stroke-width:0.8333333333333335;stroke-dasharray:7.0,7.0;"/><polygon fill="#FF0000" points="95.875,416.5729,95.9454,416.5922,96.2791,414.5561,97.0254,412.6332,97.6374,410.6734,97.8075,408.5924,98.5892,406.6793,98.5675,406.6632,97.771,407.5403,97.084,408.4979,96.4732,409.5117,95.6,410.3322,95.0943,411.4234,95.2083,411.5782,94.0156,410.5482,93.1559,409.9702,92.3367,409.4472,91.2812,408.6035,90.3501,407.9284,90.37,407.9412,91.4457,409.6514,92.6123,411.4196,93.735,413.1598,94.9414,414.9535,95.875,416.5729" style="stroke:#FF0000;stroke-width:0.8333333333333335;"/></g><!--link SMN to Subtitle--><g id="link_SMN_Subtitle"><path d="M182.9375,354.4375 L183.1514,354.6361 L175.8352,361.2404 L169.773,369.0091 L163.3024,376.3986 L155.489,382.5411 L149.4553,390.3363 L142.4198,397.2012 L135.7829,404.4362 L129.4926,411.9931 " fill="none" style="stroke:#FF0000;stroke-width:0.8333333333333335;stroke-dasharray:7.0,7.0;"/><polygon fill="#FF0000" points="125.2396,416.5729,125.2683,416.64,127.0696,415.6338,129.0391,415.0209,130.9538,414.2799,132.6883,413.1177,134.6723,412.5386,134.6713,412.5116,133.4891,412.4342,132.312,412.4927,131.1383,412.6456,129.9526,412.473,128.7838,412.7564,128.9759,412.7635,128.5215,411.5706,128.628,410.3985,128.8029,409.2289,128.5797,408.0445,128.5659,406.8679,128.5883,406.8756,127.8902,408.8053,127.294,410.77,126.6487,412.7178,126.0972,414.6979,125.2396,416.5729" style="stroke:#FF0000;stroke-width:0.8333333333333335;"/></g><!--SRC=[VP51Qy9048Nl-oksUkWfqKeFqeCWWOBGYbJRYtZOx0x9acGstKmgfVI_TpLg5fku4DZ9-sOUy_O-9Ighfz6ep0LINUIXDCN8VQL1G0gK5eaL1MDtb481lCg0PFeTc9foZS2gJ6Cf7C5Z8RF4cXfLP79Z-L2CLHoFFQA2pnfGmjnQipz1awbud4mzA1MezbOJ0NAojUzGfKAPlSRaMhZLutjkKYqpXAhYut3Q0Qs49IrrwP9uHmNsi67Ryy0OAzsI8W4-09M4pjKQhK8hzPSOy1_6tTb6mgfTU-KBWk9IvxBE1HcxO__-S1wuxJ2OyUr6KmwxMyIBISnD83Beqg0pSwfQVO7kZQ5NNhykUxNvyshjBUWfr_iUoKOEmzaP7rfGVRFVeiN7lDzvUJO-t7Xu7DmnjvdIgJV0kewfoRYfJscq7HV0cth8f9TWx9Vz0G00]--></g></svg>